<?xml version="1.0" encoding="utf-8"?>
<!-- Generator: Adobe Illustrator 19.1.0, SVG Export Plug-In . SVG Version: 6.00 Build 0)  -->
<svg version="1.1" id="Layer_1" xmlns="http://www.w3.org/2000/svg" xmlns:xlink="http://www.w3.org/1999/xlink" x="0px" y="0px"
	 viewBox="-79 81 100 100" style="enable-background:new -79 81 100 100;" xml:space="preserve">
<style type="text/css">
	.st0{fill:#6BA0D3;}
</style>
<g>
	<g>
		<path class="st0" d="M-3.2,114.4h-51.7c-1.3,0-2.4,1.1-2.4,2.4v49.9c0,1.3,1.1,2.4,2.4,2.4h51.7c1.3,0,2.4-1.1,2.4-2.4v-49.9
			C-0.8,115.4-1.9,114.4-3.2,114.4z"/>
	</g>
	<g>
		<path class="st0" d="M0,98.4h-19.6v-3c0-1.3-1.1-2.4-2.4-2.4H-36c-1.3,0-2.4,1.1-2.4,2.4v3H-58c-1.3,0-2.4,1.1-2.4,2.4v6.9
			c0,1.3,1.1,2.4,2.4,2.4H0c1.3,0,2.4-1.1,2.4-2.4v-6.9C2.4,99.4,1.3,98.4,0,98.4z"/>
	</g>
</g>
</svg>
