<?xml version="1.0" encoding="utf-8"?>
<!-- Generator: Adobe Illustrator 19.1.0, SVG Export Plug-In . SVG Version: 6.00 Build 0)  -->
<svg version="1.1" id="Layer_1" xmlns="http://www.w3.org/2000/svg" xmlns:xlink="http://www.w3.org/1999/xlink" x="0px" y="0px"
	 viewBox="0 0 627 258" style="enable-background:new 0 0 627 258;" xml:space="preserve">
<style type="text/css">
	.st0{fill:#5091CD;}
</style>
<path class="st0" d="M44,41.5h59.8c33.6,0,46,17.8,46,36.5c0,18-11.6,38-48.2,38h-17v41.3H44V41.5z M94.7,94.5
	c12.7,0,17.8-6.1,17.8-16c0-10-4.9-15.5-18-15.5h-9.9v31.4H94.7z"/>
<path class="st0" d="M186.2,67.7v24h0.3c6.3-16.8,16.3-25.5,28.7-25.5c6.8,0,13.6,2.2,21.7,7l-15.6,35.7c-5.6-5.3-10.2-7.5-15.1-7.5
	c-8.7,0-14.8,8.5-16.6,18.9v37.2h-35.3V67.7H186.2z"/>
<path class="st0" d="M324,141.4c-9.9,11.4-24.3,17.5-41.4,17.5c-30.9,0-51-20.6-51-46.7c0-26.3,19.9-46,46.4-46
	c27.3,0,48.8,21.9,44.8,53h-58.6c0.2,9.2,11,17.8,24.6,17.8c9.5,0,18.3-3.1,28.7-10.2L324,141.4z M293.8,105.9
	c-0.2-13.2-5.3-20-15.5-20c-9.2,0-16.3,5.9-15.5,20H293.8z"/>
<path class="st0" d="M442.4,153.6c-13.6,3.2-31.6,5.4-45.5,5.4c-49.8,0-67.3-33-67.3-58.3c0-36,28.5-60.8,70.2-60.8
	c13.8,0,27.7,2.7,40.4,7.8v29c-11.9-6.5-23.6-9.9-34.5-9.9c-21.2,0-35.5,13.2-35.5,33c0,20.9,16,33.5,41.1,29.9v-13.6h-14.4V91.8
	h45.5V153.6z"/>
<path class="st0" d="M543.5,141.4c-9.9,11.4-24.3,17.5-41.4,17.5c-30.9,0-51-20.6-51-46.7c0-26.3,19.9-46,46.4-46
	c27.3,0,48.8,21.9,44.8,53h-58.6c0.2,9.2,11,17.8,24.6,17.8c9.5,0,18.3-3.1,28.7-10.2L543.5,141.4z M513.2,105.9
	c-0.2-13.2-5.3-20-15.5-20c-9.2,0-16.3,5.9-15.5,20H513.2z"/>
<rect x="549.2" y="41.5" class="st0" width="35.3" height="115.8"/>
<path class="st0" d="M65.9,224.1c-3.2,5.1-7.4,7.6-12.7,7.6c-2,0-3.9-0.8-5.7-2.5c-1.8-1.6-3-3.5-3.8-5.8c-0.1-0.5-0.1-0.8-0.1-1
	c0.1-0.6,0.4-0.8,0.9-0.5c0.3,0.1,0.7,0.6,1.2,1.4c2.3,3.8,4.8,5.8,7.2,5.8c5.5,0,9.8-3.8,13-11.4c2.2-5.1,3.5-10.7,3.9-16.7
	c0.4-4.5,0.5-7.9,0.5-10.2c0-3.5-0.3-7.2-1-10.9c-0.3,0.9-0.9,3-1.9,6.3c-1.6,5.4-4.1,10.7-7.4,15.7c-3.4,5.3-6.4,7.9-9,7.9
	c-2.4,0-3.6-1.6-3.6-4.7c0-2,0.8-5.6,2.3-10.9c0.9-2.9,2-6.7,3.4-11.5c0.7-2.7,1-4.6,1-5.8c0-1.5-0.3-2.3-0.9-2.3
	c-0.7,0-2.2,1.2-4.8,3.5c-2.5,2.3-4,3.5-4.4,3.5c-0.9,0-1.3-0.5-1.3-1.4c0-0.9,1.5-2.5,4.5-4.7c3-2.2,5.2-3.3,6.4-3.3
	c2.2,0,3.2,1.2,3.2,3.7c0,2.3-0.8,6-2.3,11.2c-1.2,3.9-2.3,7.8-3.5,11.7c-0.7,2.7-1,4.8-1,6.1c0,1.8,0.4,2.7,1.2,2.7
	c1.3,0,3.7-3,7.2-8.9c6-10.3,9.1-18.1,9.3-23.6c0-0.4,0-0.9,0-1.5c0-0.8,0-1.3,0-1.5c0-1.1,0.5-1.7,1.4-1.7c1.1,0,2,2.9,2.8,8.7
	c0.6,4.3,0.9,7.2,0.9,8.9c0,7.7-0.4,13.9-1.1,18.4C71,213.6,68.9,219.4,65.9,224.1"/>
<path class="st0" d="M82.5,210.5c-1.7,0.1-3-0.4-4-1.7c-0.9-1.2-1.4-2.6-1.4-4.4c0-3,0.7-6.2,2.1-9.6c1.4-3.5,2.7-5.2,4-5.2
	c1.1,0,1.7,0.5,1.7,1.4c0,0.3-0.3,0.8-0.9,1.7c-3,4-4.5,7.7-4.5,11.2c0,3,0.7,4.5,2.2,4.5c2.3,0,4.5-2.1,6.6-6.2
	c1.9-3.6,2.8-6.5,2.8-8.6c0-3.1-0.8-4.7-2.3-4.7c-1.2,0-2.5,0.6-3.8,1.9l-0.4-0.3c-0.3-0.2-0.4-0.4-0.4-0.7c0-0.7,0.7-1.3,2.1-2
	c1.1-0.6,2-0.8,2.6-0.8c3.1,0,4.7,2.4,4.8,7.2c0.1,2.3-1,5.4-3.1,9.2C88,207.9,85.3,210.2,82.5,210.5"/>
<path class="st0" d="M109.6,197.7c-2.1,4.3-3.4,6.9-4,7.9c-2.1,3.2-4.2,4.8-6.5,4.8c-1.8,0-2.7-1.8-2.7-5.4c0-1,0.5-3.8,1.6-8.4
	c1.3-5.2,2.3-7.8,3.2-7.9c0.4,0,0.8,0.1,1.2,0.4c0.4,0.3,0.6,0.6,0.6,0.9c0,0.2-0.1,0.4-0.2,0.7l-0.5,1.3
	c-2.4,6.6-3.7,11.2-3.7,13.9c0,1.6,0.3,2.4,0.8,2.4c0.7,0,1.8-0.9,3.2-2.7c1.6-1.9,3.1-4.4,4.7-7.4c1.7-3.4,2.6-6,2.6-7.7
	c0-0.6,0.2-1.2,0.6-1.7c0.4-0.5,0.8-0.8,1.3-0.8c1,0,1.4,0.5,1.4,1.4c0,0.2-0.2,1.1-0.5,2.8c-0.3,1.7-0.5,3.4-0.5,4.9
	c0,6,0.9,9.1,2.8,9.1c0.4,0,0.9-0.3,1.4-0.8c0.2-0.2,0.6-0.5,1-0.8c0.4,0.4,0.6,0.7,0.6,0.9c0,0.7-0.5,1.3-1.4,1.8
	c-0.8,0.4-1.4,0.7-1.9,0.7c-3,0-4.7-3.3-5.2-9.8L109.6,197.7z"/>
<path class="st0" d="M124.6,194.7c2.4-6.1,4.9-9.1,7.6-9.1c1.8,0,2.9,0.8,3.2,2.5c0.2,1-0.2,1.5-1,1.5c-0.3,0-0.5-0.1-0.6-0.3
	c-0.1-0.2-0.2-0.4-0.2-0.7l-0.1-0.3c-0.1-0.4-0.3-0.6-0.7-0.6c-0.9,0-2.1,1-3.6,3c-1.7,2.4-2.9,4.5-3.6,6.5c-0.7,2.1-1.1,4.5-1,7.2
	c0,0.1,0.1,1.7,0.2,4.7c0,0.4-0.2,0.7-0.6,1c-0.4,0.3-0.7,0.5-1.1,0.5c-1.1,0-1.5-0.8-1.4-2.5c0.3-3.9,0.5-7.1,0.5-9.7
	c0-2.7-0.2-5.7-0.5-9.1c0-0.4,0.1-0.8,0.5-1.2c0.4-0.4,0.7-0.6,1.1-0.6c0.6,0,1.1,0.3,1.4,1c0.2,0.5,0.3,0.9,0.2,1.3
	C124.7,191.6,124.6,193.3,124.6,194.7"/>
<path class="st0" d="M153.1,196c3.9-5.7,7.8-8.6,11.7-8.6c2.5,0,3.8,1.8,3.8,5.5c0,3-1.3,6.4-4,10c-2.8,3.8-5.5,5.7-8,5.7
	c-1.9,0-2.9-1-2.9-3c0-0.6,0.2-1.4,0.6-2.3h1.2c0,0.4,0,0.8-0.1,1.2c-0.1,0.5-0.1,0.9-0.1,1.2c0,0.4,0.3,0.7,0.8,0.7
	c2.4,0,4.8-1.9,7-5.8c2-3.4,3-6.2,3-8.4c0-1.9-0.5-2.9-1.6-2.9c-2.1,0-4.5,1.7-7.3,5.1c-2.5,3.1-4,5.7-4.4,7.7
	c-0.7,3.5-1.1,7.5-1.2,12.1c-0.1,6.5,0.9,9.7,2.8,9.7c0,0,0.1,0,0.3-0.1c0.2-0.1,0.7-0.2,1.5-0.5v1.1c0,0.4-0.3,0.7-0.9,1
	c-0.5,0.2-0.9,0.3-1.1,0.3c-1.6-0.2-2.9-1.3-3.7-3.5c-0.7-1.7-1-3.7-1.1-6c0-1.1-0.1-2.2-0.1-3.3c0-4.1,0.5-11.3,1.4-21.5
	c0.3-2.8,1.1-4.2,2.4-4.2c0.9,0,1.3,0.5,1.3,1.4c0,0.1,0,0.2,0,0.3L153.1,196z"/>
<path class="st0" d="M186.3,208c-1.8-0.7-2.7-2.8-2.7-6.4v-1.2c-1.9,2.5-4,4.9-6.2,7c-2.9,2.7-5.2,4-6.9,4c-0.6,0-1-0.2-1.4-0.5
	c-0.7-0.5-1-1.4-1-2.5c0-2.4,1.3-5.6,3.9-9.7c2.5-3.9,5.2-7.1,8.2-9.6c3.2-2.8,5.6-3.6,7.2-2.6c0.7,0.5,1.1,1.4,1.1,2.9
	c0,1.8-0.6,2.7-1.8,2.8c-0.8,0.1-1.3-0.2-1.3-0.9c0-0.1,0-0.2,0.1-0.3c0.4-0.9,0.5-1.7,0.5-2.4c0-0.4,0-0.6-0.1-0.6
	c-1.9,0.3-5,3.3-9.2,8.8c-4.2,5.5-6.4,9.3-6.4,11.4c0,0.7,0.3,1.1,1,1.1c1.7,0,4.3-2.2,7.9-6.5c2.5-3,3.8-4.7,4.1-5
	c1.1-1.5,1.7-2.9,1.9-4.2c0.1-0.9,0.6-1.3,1.4-1.3c1.2,0,1.6,0.6,1.4,1.7c-0.9,4.9-1.4,8-1.4,9c0,2,0.4,3.1,1.3,3.3
	c0.3,0.1,0.6,0,1-0.2c0.3-0.2,0.5-0.3,0.5-0.5c0.2-0.8,0.7-1.2,1.4-1.2c0.5,0,0.7,0.2,0.7,0.8c0,0.2-0.1,0.5-0.2,0.8
	c-0.6,1.5-1.7,2.3-3.2,2.3C187.2,208.2,186.7,208.1,186.3,208"/>
<path class="st0" d="M207.8,189.7c-0.1,0-0.5-0.2-1.1-0.5c-0.6-0.3-1.1-0.5-1.5-0.5c-1.3-0.1-3.1,0.8-5.5,2.9
	c-2.4,2.1-3.6,3.9-3.6,5.3c0,0.8,1.4,1.2,4.2,1.2c5.4,0,8.1,1.5,8.1,4.5c0,2.1-1.2,4-3.6,5.7c-2.2,1.5-4.4,2.3-6.5,2.3
	c-1,0-1.8-0.3-2.7-0.9c-1-0.7-1.4-1.5-1.4-2.6c0-0.4,0.2-1,0.6-1.6c0.4-0.7,0.9-1,1.4-1c0.1,0,0.3,0,0.4,0.1
	c-0.1,0.7-0.2,1.2-0.3,1.6c-0.1,0.2-0.1,0.4-0.1,0.7c0,0.9,0.5,1.3,1.5,1.3c1.6,0,3.4-0.5,5.4-1.6c2.3-1.2,3.4-2.4,3.4-3.6
	c0-0.8-0.4-1.4-1.2-2c-0.7-0.4-1.4-0.7-2.2-0.7l-5.5-0.2c-0.9,0-1.8-0.2-2.7-0.6c-1.2-0.5-1.8-1.1-1.8-1.8c0-1.9,1.5-4.3,4.5-7.2
	c3-2.9,5.5-4.4,7.5-4.4c0.6,0,1.3,0.2,2.1,0.7c1,0.5,1.5,1.1,1.5,1.8C208.9,189.3,208.5,189.7,207.8,189.7"/>
<path class="st0" d="M224.7,189.7c-0.1,0-0.5-0.2-1.1-0.5c-0.6-0.3-1.1-0.5-1.5-0.5c-1.3-0.1-3.1,0.8-5.5,2.9
	c-2.4,2.1-3.6,3.9-3.6,5.3c0,0.8,1.4,1.2,4.2,1.2c5.4,0,8.1,1.5,8.1,4.5c0,2.1-1.2,4-3.6,5.7c-2.2,1.5-4.4,2.3-6.5,2.3
	c-1,0-1.8-0.3-2.7-0.9c-1-0.7-1.4-1.5-1.4-2.6c0-0.4,0.2-1,0.6-1.6c0.4-0.7,0.9-1,1.4-1c0.1,0,0.3,0,0.4,0.1
	c-0.1,0.7-0.2,1.2-0.3,1.6c-0.1,0.2-0.1,0.4-0.1,0.7c0,0.9,0.5,1.3,1.5,1.3c1.6,0,3.4-0.5,5.4-1.6c2.3-1.2,3.4-2.4,3.4-3.6
	c0-0.8-0.4-1.4-1.2-2c-0.7-0.4-1.4-0.7-2.2-0.7l-5.5-0.2c-0.9,0-1.8-0.2-2.7-0.6c-1.2-0.5-1.8-1.1-1.8-1.8c0-1.9,1.5-4.3,4.5-7.2
	c3-2.9,5.5-4.4,7.5-4.4c0.6,0,1.3,0.2,2.1,0.7c1,0.5,1.5,1.1,1.5,1.8C225.7,189.3,225.4,189.7,224.7,189.7"/>
<path class="st0" d="M234.2,211.1c-1.8,0-3.2-1.4-4.2-4.3c-0.7-2-1-3.9-1-5.7c0-1.7,0.2-3.8,0.6-6.3c0.6-3.6,1.5-5.4,2.6-5.4
	c0.9,0,1.3,0.5,1.3,1.5c0,0.5-0.3,1.3-0.8,2.6c-0.6,1.4-1,3.7-1.2,7.1c0,1.6,0,2.5,0,2.8c0.2,1.2,0.5,2.4,0.7,3.6
	c0.5,1.6,1.2,2.4,2.2,2.4c0.2,0,0.4,0,0.5-0.1c0.3-0.4,0.6-0.7,1.1-0.9c0.4,0.3,0.6,0.7,0.6,1c0,0.5-0.3,1-1,1.4
	C235.2,210.9,234.7,211.1,234.2,211.1 M232.5,182.6c-0.4,0-0.8-0.2-1.1-0.5c-0.3-0.4-0.4-0.7-0.4-1c0-0.4,0.1-0.8,0.4-1.2
	c0.3-0.4,0.7-0.6,1.1-0.6c1,0,1.5,0.5,1.5,1.6C234.1,182,233.6,182.6,232.5,182.6"/>
<path class="st0" d="M244.6,210.5c-1.7,0.1-3-0.4-4-1.7c-0.9-1.2-1.4-2.6-1.4-4.4c0-3,0.7-6.2,2.1-9.6c1.4-3.5,2.7-5.2,4-5.2
	c1.1,0,1.7,0.5,1.7,1.4c0,0.3-0.3,0.8-0.9,1.7c-3,4-4.5,7.7-4.5,11.2c0,3,0.7,4.5,2.2,4.5c2.3,0,4.5-2.1,6.6-6.2
	c1.9-3.6,2.8-6.5,2.8-8.6c0-3.1-0.8-4.7-2.3-4.7c-1.2,0-2.5,0.6-3.8,1.9l-0.4-0.3c-0.3-0.2-0.4-0.4-0.4-0.7c0-0.7,0.7-1.3,2.1-2
	c1.2-0.6,2-0.8,2.6-0.8c3.1,0,4.7,2.4,4.8,7.2c0.1,2.3-1,5.4-3.1,9.2C250.2,207.9,247.5,210.2,244.6,210.5"/>
<path class="st0" d="M262,200.8l0.5-0.9c4.1-7,7-10.5,8.8-10.5c1.6,0,2.7,1.2,3.2,3.6c0.2,1.8,0.3,3.7,0.5,5.5
	c0.3,3,0.5,4.7,0.6,5.1c0.4,2.7,1.1,4,1.9,4c0.4,0,0.9-0.3,1.5-1l1.1,0.3c0,0.8-0.3,1.4-1,1.8c-0.5,0.4-1,0.5-1.4,0.5
	c-2.8,0-4.5-3.1-5.1-9.4c-0.1-1.5-0.3-3.5-0.6-6.1c-0.2-1.6-0.5-2.4-0.8-2.4c-0.7,0-2.3,2-4.8,6.1c-2.6,4.1-4.4,7.8-5.4,11.2
	c-0.3,0.9-0.7,1.4-1.4,1.4c-0.9,0-1.3-0.4-1.2-1.3c0-0.3,0.6-4.4,1.8-12.2c0.1-1,0.2-2.3,0.3-4.1c0.2-1.6,0.7-2.4,1.7-2.4
	c0.6,0,1,0.2,1.2,0.6c0.1,0.4,0.2,0.9,0.3,1.3L262,200.8z"/>
<path class="st0" d="M286.6,208.2c-0.5,0-0.9-0.2-1.4-0.5c-0.5-0.4-0.7-0.8-0.7-1.3c0-1,0.5-1.5,1.6-1.5c1.5,0,2.2,0.4,2.2,1.3
	C288.3,207.5,287.7,208.2,286.6,208.2"/>
<path class="st0" d="M311,211.5c-3.5,0-6.1-1.5-7.7-4.4c-1.3-2.2-1.9-5.1-1.9-8.7c0-2.3,0.4-4.7,1.2-7.2c0.6-1.6,1.1-3.2,1.7-4.8
	c-0.1-3.8,1.1-7.1,3.8-9.8c2.6-2.7,5.6-3.9,9.1-3.6c3.1,0.2,5.6,2,7.6,5.5c1.7,2.9,2.6,5.9,2.6,9.1c0,5.5-1.3,10.6-3.9,15.4
	C320.4,208.6,316.2,211.5,311,211.5 M316.4,175.2c-2.3-0.2-4.5,0.7-6.5,2.7c-2.1,2-3.1,4.2-3.3,6.5c0-0.6,0.3-1.3,0.9-2.1
	c0.7-0.8,1.3-1.2,1.8-1.2c0.4,0,0.7,0.2,1,0.5c0.3,0.3,0.4,0.6,0.4,1c0,0.5-0.6,1.6-1.9,3.1c-1.3,1.5-1.9,2.3-1.9,2.5
	c0,0.1,0.2,0.4,0.6,0.7c0.4,0.3,0.7,0.5,0.8,0.5c0.6-0.1,0.9-0.1,1-0.1c0.1,0,0.2,0,0.4,0c0.4,0,0.6,0.2,0.6,0.6
	c0,1-0.6,1.5-1.8,1.5c-1.1,0-2-0.3-2.7-1c-1.2,2.9-1.9,5.7-1.9,8.3c0,2.7,0.5,5.1,1.5,7c1.2,2.4,2.9,3.6,5.1,3.6
	c4.4,0,8-2.5,10.6-7.6c2.2-4.2,3.3-8.8,3.3-14c0-2.8-0.7-5.4-2-7.9C320.9,177,318.9,175.4,316.4,175.2"/>
<path class="st0" d="M342.2,197.7c-2.1,4.3-3.4,6.9-4,7.9c-2.1,3.2-4.2,4.8-6.5,4.8c-1.8,0-2.7-1.8-2.7-5.4c0-1,0.5-3.8,1.6-8.4
	c1.3-5.2,2.3-7.8,3.2-7.9c0.4,0,0.8,0.1,1.2,0.4c0.4,0.3,0.6,0.6,0.6,0.9c0,0.2-0.1,0.4-0.2,0.7L335,192c-2.4,6.6-3.7,11.2-3.7,13.9
	c0,1.6,0.3,2.4,0.8,2.4c0.7,0,1.8-0.9,3.2-2.7c1.6-1.9,3.1-4.4,4.7-7.4c1.7-3.4,2.6-6,2.6-7.7c0-0.6,0.2-1.2,0.6-1.7
	c0.4-0.5,0.8-0.8,1.3-0.8c1,0,1.4,0.5,1.4,1.4c0,0.2-0.2,1.1-0.5,2.8c-0.3,1.7-0.5,3.4-0.5,4.9c0,6,0.9,9.1,2.8,9.1
	c0.4,0,0.9-0.3,1.4-0.8c0.2-0.2,0.6-0.5,1-0.8c0.4,0.4,0.6,0.7,0.6,0.9c0,0.7-0.5,1.3-1.4,1.8c-0.8,0.4-1.4,0.7-1.9,0.7
	c-3,0-4.7-3.3-5.2-9.8L342.2,197.7z"/>
<path class="st0" d="M357.3,194.7c2.4-6.1,4.9-9.1,7.7-9.1c1.8,0,2.9,0.8,3.2,2.5c0.2,1-0.2,1.5-1,1.5c-0.3,0-0.5-0.1-0.6-0.3
	c-0.1-0.2-0.2-0.4-0.2-0.7l-0.1-0.3c-0.1-0.4-0.3-0.6-0.7-0.6c-0.9,0-2.1,1-3.6,3c-1.7,2.4-2.9,4.5-3.6,6.5c-0.7,2.1-1.1,4.5-1,7.2
	c0,0.1,0.1,1.7,0.2,4.7c0,0.4-0.2,0.7-0.6,1c-0.4,0.3-0.7,0.5-1.1,0.5c-1.1,0-1.5-0.8-1.4-2.5c0.3-3.9,0.5-7.1,0.5-9.7
	c0-2.7-0.2-5.7-0.5-9.1c0-0.4,0.1-0.8,0.5-1.2c0.4-0.4,0.7-0.6,1.1-0.6c0.6,0,1.1,0.3,1.4,1c0.2,0.5,0.3,0.9,0.2,1.3
	C357.4,191.6,357.2,193.3,357.3,194.7"/>
<path class="st0" d="M384.5,211.1c-1.8,0-3.2-1.4-4.2-4.3c-0.7-2-1-3.9-1-5.7c0-1.7,0.2-3.8,0.6-6.3c0.6-3.6,1.5-5.4,2.6-5.4
	c0.9,0,1.3,0.5,1.3,1.5c0,0.5-0.3,1.3-0.8,2.6c-0.6,1.4-1,3.7-1.2,7.1c0,1.6,0,2.5,0,2.8c0.2,1.2,0.5,2.4,0.7,3.6
	c0.5,1.6,1.2,2.4,2.2,2.4c0.2,0,0.4,0,0.5-0.1c0.3-0.4,0.6-0.7,1.1-0.9c0.4,0.3,0.6,0.7,0.6,1c0,0.5-0.3,1-1,1.4
	C385.5,210.9,385,211.1,384.5,211.1 M382.8,182.6c-0.4,0-0.8-0.2-1.1-0.5c-0.3-0.4-0.4-0.7-0.4-1c0-0.4,0.1-0.8,0.4-1.2
	c0.3-0.4,0.7-0.6,1.1-0.6c1,0,1.5,0.5,1.5,1.6C384.4,182,383.8,182.6,382.8,182.6"/>
<path class="st0" d="M394.5,200.8l0.5-0.9c4.1-7,7-10.5,8.8-10.5c1.6,0,2.7,1.2,3.2,3.6c0.2,1.8,0.3,3.7,0.5,5.5
	c0.3,3,0.5,4.7,0.6,5.1c0.4,2.7,1.1,4,1.9,4c0.4,0,0.9-0.3,1.5-1l1.1,0.3c0,0.8-0.3,1.4-1,1.8c-0.5,0.4-1,0.5-1.4,0.5
	c-2.8,0-4.5-3.1-5.1-9.4c-0.1-1.5-0.3-3.5-0.6-6.1c-0.2-1.6-0.5-2.4-0.8-2.4c-0.7,0-2.3,2-4.8,6.1c-2.6,4.1-4.4,7.8-5.4,11.2
	c-0.3,0.9-0.7,1.4-1.4,1.4c-0.9,0-1.3-0.4-1.2-1.3c0-0.3,0.6-4.4,1.8-12.2c0.1-1,0.2-2.3,0.3-4.1c0.2-1.6,0.7-2.4,1.7-2.4
	c0.6,0,1,0.2,1.2,0.6c0.1,0.4,0.2,0.9,0.3,1.3L394.5,200.8z"/>
<path class="st0" d="M424.1,227.9c-2.4,0-4.6-1.1-6.6-3.3c-2-2.2-3-4.6-3-7c0-1.1,0.4-1.7,1.1-1.7c0.5,0,0.8,0.3,0.8,1
	c-0.1,2.2,0.7,4.2,2.2,5.9c1.5,1.8,3.2,2.6,5,2.6c3.8,0,6.6-2.8,8.4-8.5c1.2-3.6,1.8-7.2,1.8-10.8c0-7.2-0.6-10.7-1.9-10.7
	c-0.1,0-0.5,0.6-1.3,1.8c-2.4,3.6-4.1,6-5,7.1c-2.5,2.9-4.7,4.3-6.8,4.3c-1.1,0-1.9-0.4-2.6-1.2c-0.5-0.7-0.8-1.6-0.8-2.6
	c0-3.2,2-7.4,6.1-12.5c4.1-5.1,7.4-7.7,10-7.7c1.1,0,1.9,0.6,2.6,1.8c0.5,0.9,0.7,1.8,0.7,2.7c0,1.6-0.4,2.4-1.3,2.4
	c-1.1,0-1.5-1-1.4-2.9c0.1-1.2-0.1-1.8-0.7-1.8c-1.4,0-3.3,1.4-5.8,4.2c-1.8,2-3.2,3.9-4.2,5.7c-0.8,0.9-1.6,2.2-2.4,3.9
	c-1,2-1.5,3.5-1.5,4.7c0,0.8,0.1,1.2,0.4,1.2c1.4,0,3.2-1.2,5.5-3.6c0.8-0.9,2.7-3.1,5.5-6.7c1.9-2.4,3.1-3.6,3.7-3.6
	c1.3,0,2.3,1.9,2.9,5.7c0.4,2.6,0.7,5.1,0.7,7.6c0,6.1-1.2,11.4-3.6,15.6C430.3,225.8,427.4,227.9,424.1,227.9"/>
<path class="st0" d="M443.8,194.7c2.4-6.1,4.9-9.1,7.7-9.1c1.8,0,2.9,0.8,3.2,2.5c0.2,1-0.2,1.5-1,1.5c-0.3,0-0.5-0.1-0.6-0.3
	c-0.1-0.2-0.2-0.4-0.2-0.7l-0.1-0.3c-0.1-0.4-0.3-0.6-0.7-0.6c-0.9,0-2.1,1-3.6,3c-1.7,2.4-2.9,4.5-3.6,6.5c-0.7,2.1-1.1,4.5-1,7.2
	c0,0.1,0.1,1.7,0.2,4.7c0,0.4-0.2,0.7-0.6,1c-0.4,0.3-0.7,0.5-1.1,0.5c-1.1,0-1.5-0.8-1.4-2.5c0.3-3.9,0.5-7.1,0.5-9.7
	c0-2.7-0.2-5.7-0.5-9.1c0-0.4,0.1-0.8,0.5-1.2c0.4-0.4,0.7-0.6,1.1-0.6c0.6,0,1.1,0.3,1.4,1c0.2,0.5,0.3,0.9,0.2,1.3
	C443.8,191.6,443.7,193.3,443.8,194.7"/>
<path class="st0" d="M455.3,199.3c-0.3,0.3-0.7,1.2-1.1,2.8c-0.4,1.6-0.6,2.9-0.6,4.1c0,1.5,1,2.3,3,2.3c1.9,0,4.1-1.1,6.7-3.3
	c2.5-2.2,4.2-4.4,5.1-6.7h0.9c0.4,0.3,0.5,0.7,0.4,1c-1.1,3.2-3,5.9-5.6,8.1c-2.5,2.1-5,3.1-7.4,3.1c-1.8,0-3.2-0.6-4.2-1.9
	c-0.9-1.2-1.3-2.8-1.2-4.9c0.2-2.9,1.7-6.5,4.6-10.7c3.1-4.6,6-6.9,8.5-6.9c0.9,0,1.5,0.4,2,1.2c0.3,0.6,0.5,1.2,0.5,1.9
	c0,1.9-0.8,4.1-2.4,6.5c-1.9,2.9-4,4.4-6.5,4.4c-1.2,0-2-0.2-2.6-0.8L455.3,199.3z M464.1,188.1c-0.7,0.2-1.4,0.6-2,1.3
	c-4,4.7-6,7.4-6,8.2c0,0.2,0.4,0.3,1.3,0.4c1.5,0.1,3.1-1,4.9-3.2c1.7-2.2,2.6-4.1,2.6-5.8C464.9,188.3,464.6,188,464.1,188.1"/>
<path class="st0" d="M488.3,198.7l-1.1,1.3c-6.1,7.8-10.6,11.7-13.4,11.7h-0.6c-1.9,0-2.9-1-2.9-2.9c0-1.6,0.9-4.1,2.6-7.4
	c1.8-3.6,3.9-6.6,6.2-9.1c2.7-2.9,5.3-4.4,7.6-4.4c0.9,0,1.8,0.3,2.7,1c0.4-2.1,0.9-5.2,1.7-9.2c0.7-3.9,1.5-5.8,2.4-5.8
	c0.3,0,0.7,0.2,1.1,0.5c0.4,0.3,0.5,0.7,0.5,1.1c0,0.1-0.2,0.9-0.7,2.5c-2.4,8.4-3.7,16.4-3.7,24c0,4.4,0.7,6.6,2,6.6
	c0.1,0,0.2-0.1,0.4-0.2c0.2-0.1,0.6-0.3,1.2-0.6c0.3,0.3,0.5,0.7,0.5,1c0,0.4-0.3,0.8-0.9,1.2c-0.5,0.3-1,0.5-1.5,0.5
	c-2.8,0-4.2-3.2-4.2-9.6V198.7z M487,189.8c-2.1-0.4-5.2,2.2-9.1,7.7c-3.7,5.3-5.5,9-5.5,11.2c0,0.5,0.2,0.8,0.6,0.8
	c1.7,0,4.5-2,8.5-6c3.6-3.6,5.7-6.2,6.4-7.8c0.4-0.9,0.6-2,0.6-3.2c0-0.6-0.2-1.2-0.5-1.7C487.8,190.2,487.4,189.9,487,189.8"/>
<path class="st0" d="M502.9,211.1c-1.8,0-3.2-1.4-4.2-4.3c-0.7-2-1-3.9-1-5.7c0-1.7,0.2-3.8,0.6-6.3c0.6-3.6,1.5-5.4,2.6-5.4
	c0.9,0,1.3,0.5,1.3,1.5c0,0.5-0.3,1.3-0.8,2.6c-0.6,1.4-1,3.7-1.2,7.1c0,1.6,0,2.5,0,2.8c0.2,1.2,0.5,2.4,0.7,3.6
	c0.5,1.6,1.2,2.4,2.2,2.4c0.2,0,0.4,0,0.5-0.1c0.3-0.4,0.6-0.7,1.1-0.9c0.4,0.3,0.6,0.7,0.6,1c0,0.5-0.3,1-1,1.4
	C503.8,210.9,503.3,211.1,502.9,211.1 M501.2,182.6c-0.4,0-0.8-0.2-1.1-0.5c-0.3-0.4-0.4-0.7-0.4-1c0-0.4,0.1-0.8,0.4-1.2
	c0.3-0.4,0.7-0.6,1.1-0.6c1,0,1.5,0.5,1.5,1.6C502.7,182,502.2,182.6,501.2,182.6"/>
<path class="st0" d="M511.8,199.3c-0.3,0.3-0.7,1.2-1.1,2.8c-0.4,1.6-0.6,2.9-0.6,4.1c0,1.5,1,2.3,3,2.3c1.9,0,4.1-1.1,6.7-3.3
	c2.5-2.2,4.2-4.4,5.1-6.7h0.9c0.4,0.3,0.5,0.7,0.4,1c-1.1,3.2-3,5.9-5.6,8.1c-2.5,2.1-5,3.1-7.4,3.1c-1.8,0-3.2-0.6-4.2-1.9
	c-0.9-1.2-1.3-2.8-1.2-4.9c0.2-2.9,1.7-6.5,4.6-10.7c3.1-4.6,6-6.9,8.5-6.9c0.9,0,1.5,0.4,2,1.2c0.3,0.6,0.5,1.2,0.5,1.9
	c0,1.9-0.8,4.1-2.4,6.5c-1.9,2.9-4,4.4-6.5,4.4c-1.2,0-2-0.2-2.6-0.8L511.8,199.3z M520.6,188.1c-0.7,0.2-1.4,0.6-2,1.3
	c-4,4.7-6,7.4-6,8.2c0,0.2,0.4,0.3,1.3,0.4c1.5,0.1,3.1-1,4.9-3.2c1.7-2.2,2.6-4.1,2.6-5.8C521.4,188.3,521.1,188,520.6,188.1"/>
<path class="st0" d="M532.8,200.8l0.5-0.9c4.1-7,7-10.5,8.8-10.5c1.6,0,2.7,1.2,3.2,3.6c0.2,1.8,0.3,3.7,0.5,5.5
	c0.3,3,0.5,4.7,0.6,5.1c0.4,2.7,1.1,4,1.9,4c0.4,0,0.9-0.3,1.5-1l1.1,0.3c0,0.8-0.3,1.4-1,1.8c-0.5,0.4-1,0.5-1.4,0.5
	c-2.8,0-4.5-3.1-5.1-9.4c-0.1-1.5-0.3-3.5-0.6-6.1c-0.2-1.6-0.5-2.4-0.8-2.4c-0.7,0-2.3,2-4.8,6.1c-2.6,4.1-4.4,7.8-5.4,11.2
	c-0.3,0.9-0.7,1.4-1.4,1.4c-0.9,0-1.3-0.4-1.2-1.3c0-0.3,0.6-4.4,1.8-12.2c0.1-1,0.2-2.3,0.3-4.1c0.2-1.6,0.7-2.4,1.7-2.4
	c0.6,0,1,0.2,1.2,0.6c0.1,0.4,0.2,0.9,0.3,1.3L532.8,200.8z"/>
<path class="st0" d="M557.7,191.3c0.9-0.2,1.9-0.3,3.1-0.3c0.6,0,1.2,0.2,2,0.6c1,0.5,1.5,1.2,1.5,1.9c0,0.1,0,0.3-0.1,0.4l0,0.1
	c0,0,0,0-0.1,0.2c-0.2,0.1-0.3,0.1-0.2,0.1h-0.1c-0.1,0.1-0.2,0.1-0.4,0.1c-0.1,0-0.3-0.1-0.5-0.3c-0.4-0.9-1-1.4-1.9-1.4
	c-0.3,0-0.7,0.1-1,0.2c-0.8,0.2-1.6,0.6-2.5,1.1c0,0.1,0,0.2,0,0.5c-0.2,1.9-0.3,4.3-0.2,7c0.2,5.1,1.3,7.6,3.4,7.6
	c0.6,0,1.1-0.3,1.6-0.9c0.5-0.6,0.8-0.9,1-0.9c0.6,0,0.9,0.3,0.9,0.9c0,0.7-0.6,1.3-1.7,2c-0.9,0.5-1.6,0.8-2.1,0.8
	c-1.7,0-3.1-1-4.2-2.9c-0.7-1.4-1.2-2.9-1.4-4.5c-0.3-2.9-0.3-5.8-0.1-8.7c-1.1,0.4-2.4,1.1-3.9,2.3c-0.2,0.2-0.4,0.2-0.5,0.2
	c-0.5,0-0.8-0.5-0.8-1.6c0-0.7,1.6-1.8,4.7-3.3c0.2,0,0.4-0.1,0.6-0.1c0.1-1.3,0.3-3.3,0.6-5.9c0.3-2.6,0.9-3.9,1.9-3.9
	c0.8,0,1.3,0.5,1.3,1.6L557.7,191.3z"/>
<path class="st0" d="M581.1,189.7c-0.1,0-0.5-0.2-1.1-0.5c-0.6-0.3-1.1-0.5-1.5-0.5c-1.3-0.1-3.1,0.8-5.5,2.9
	c-2.4,2.1-3.6,3.9-3.6,5.3c0,0.8,1.4,1.2,4.2,1.2c5.4,0,8.1,1.5,8.1,4.5c0,2.1-1.2,4-3.6,5.7c-2.2,1.5-4.4,2.3-6.5,2.3
	c-1,0-1.8-0.3-2.7-0.9c-1-0.7-1.4-1.5-1.4-2.6c0-0.4,0.2-1,0.6-1.6c0.4-0.7,0.9-1,1.4-1c0.1,0,0.3,0,0.4,0.1
	c-0.1,0.7-0.2,1.2-0.3,1.6c-0.1,0.2-0.1,0.4-0.1,0.7c0,0.9,0.5,1.3,1.5,1.3c1.6,0,3.4-0.5,5.4-1.6c2.3-1.2,3.4-2.4,3.4-3.6
	c0-0.8-0.4-1.4-1.2-2c-0.7-0.4-1.4-0.7-2.2-0.7l-5.5-0.2c-0.9,0-1.8-0.2-2.7-0.6c-1.2-0.5-1.8-1.1-1.8-1.8c0-1.9,1.5-4.3,4.5-7.2
	c3-2.9,5.5-4.4,7.5-4.4c0.6,0,1.3,0.2,2.1,0.7c1,0.5,1.5,1.1,1.5,1.8C582.1,189.3,581.8,189.7,581.1,189.7"/>
<path class="st0" d="M587.6,208.2c-0.5,0-0.9-0.2-1.4-0.5c-0.5-0.4-0.7-0.8-0.7-1.3c0-1,0.5-1.5,1.6-1.5c1.5,0,2.2,0.4,2.2,1.3
	C589.3,207.5,588.8,208.2,587.6,208.2"/>
</svg>
